<svg width="184" height="32" viewBox="0 0 184 32" fill="none" xmlns="http://www.w3.org/2000/svg">
<g clip-path="url(#clip0_232_4272)">
<path d="M52.5297 13.4477C49.1155 12.8627 47.0415 12.3486 47.0415 10.1576C47.0415 8.17226 48.644 6.98813 51.3278 6.98813C54.0116 6.98813 55.8729 8.43816 56.1636 10.7674L56.1955 11.0404H59.521L59.5033 10.7107C59.2409 6.61941 56.0324 3.97461 51.3278 3.97461C46.8182 3.97461 43.7905 6.5166 43.7905 10.303C43.7905 14.6247 47.4209 15.8195 50.9733 16.4151C54.3271 16.9859 56.5217 17.5319 56.5217 19.8293C56.5217 21.8607 54.7774 23.1193 51.9624 23.1193C48.917 23.1193 46.8182 21.3786 46.6161 18.6877L46.5948 18.4005H43.2622V18.7231C43.4253 23.2221 46.8075 26.1293 51.9199 26.1293C56.5288 26.1293 59.7621 23.4384 59.7621 19.5882C59.7763 17.2944 58.9502 14.5361 52.5297 13.4477Z" fill="white"/>
<path d="M66.973 21.5872V12.7948H70.965V9.90536H66.973V5.58008H63.8744V9.90536H61.0913V12.7948H63.8744V21.6262C63.8744 24.622 65.2074 25.9585 68.2068 25.9585H71.2061V23.062H68.4337C67.3027 23.062 66.973 22.7323 66.973 21.5872Z" fill="white"/>
<path d="M80.3666 9.72461C75.6797 9.72461 72.4038 13.0997 72.4038 17.9285C72.4038 22.7572 75.6797 26.1323 80.3666 26.1323C85.0535 26.1323 88.3294 22.7572 88.3294 17.9285C88.3294 13.0997 85.0535 9.72461 80.3666 9.72461ZM80.3666 23.3032C77.5303 23.3032 75.5662 21.0944 75.5662 17.9285C75.5662 14.7625 77.541 12.5538 80.3666 12.5538C83.1922 12.5538 85.1669 14.7625 85.1669 17.9285C85.1669 21.0944 83.1957 23.3032 80.3666 23.3032Z" fill="white"/>
<path d="M93.5688 11.725L93.3064 9.90625H90.5801V25.9523H93.6822V17.7768C93.6822 15.9723 94.175 12.9446 97.4828 12.9446H99.0357V9.90625H98.0288C95.5825 9.90625 94.331 10.7784 93.5688 11.725Z" fill="white"/>
<path d="M107.719 21.6519L103.181 9.90625H99.8872L106.017 25.729L105.308 27.5016C104.748 28.9198 104.599 29.1183 103.358 29.1183H100.841V32.0077H104.117C106.457 32.0077 107.134 30.8981 108.123 28.3632L115.398 9.92752H112.097L107.719 21.6519Z" fill="white"/>
<path d="M120.417 4.1582H117.166L117.453 25.9512H130.351V22.9094H120.704L120.417 4.1582Z" fill="white"/>
<path d="M139.236 9.72461C134.549 9.72461 131.273 13.0997 131.273 17.9285C131.273 22.7572 134.549 26.1323 139.236 26.1323C143.923 26.1323 147.199 22.7572 147.199 17.9285C147.199 13.0997 143.923 9.72461 139.236 9.72461ZM139.236 23.3032C136.4 23.3032 134.436 21.0944 134.436 17.9285C134.436 14.7625 136.411 12.5538 139.236 12.5538C142.062 12.5538 144.037 14.7625 144.037 17.9285C144.037 21.0944 142.062 23.3032 139.236 23.3032Z" fill="white"/>
<path d="M157.447 9.72461C152.756 9.72461 149.484 13.0997 149.484 17.9285C149.484 22.7572 152.756 26.1323 157.447 26.1323C162.137 26.1323 165.409 22.7572 165.409 17.9285C165.409 13.0997 162.134 9.72461 157.447 9.72461ZM157.447 23.3032C154.61 23.3032 152.646 21.0944 152.646 17.9285C152.646 14.7625 154.618 12.5538 157.447 12.5538C160.276 12.5538 162.247 14.7625 162.247 17.9285C162.247 21.0944 160.258 23.3032 157.447 23.3032Z" fill="white"/>
<path d="M175.749 9.72458C174.792 9.70141 173.841 9.88735 172.963 10.2694C172.085 10.6515 171.3 11.2206 170.665 11.9369L170.395 9.9054H167.666V31.9998H170.764V24.2001C171.913 25.4551 173.646 26.1358 175.749 26.1358C180.294 26.1358 183.467 22.7607 183.467 17.932C183.467 12.9437 180.439 9.72458 175.749 9.72458ZM175.504 12.5608C178.379 12.5608 180.308 14.7199 180.308 17.9355C180.308 21.1511 178.379 23.3031 175.504 23.3031C172.629 23.3031 170.736 21.1192 170.736 17.8682C170.736 14.7377 172.696 12.5537 175.504 12.5537V12.5608Z" fill="white"/>
<path d="M30.5006 0V4.28983C29.3534 4.29171 28.2538 4.74849 27.4429 5.56C26.6321 6.37151 26.1762 7.47148 26.1753 8.61866C26.1757 9.18307 26.2884 9.74176 26.5068 10.2622C26.7252 10.7826 27.045 11.2544 27.4476 11.65C27.8501 12.0456 28.3274 12.3572 28.8515 12.5666C29.3757 12.7759 29.9362 12.8789 30.5006 12.8695V17.1593C28.2251 17.1593 26.0428 16.2554 24.4338 14.6464C22.8248 13.0374 21.9209 10.8551 21.9209 8.57966C21.9209 6.30419 22.8248 4.12192 24.4338 2.51292C26.0428 0.903926 28.2251 0 30.5006 0Z" fill="white"/>
<path d="M0.364258 0H0.83933C17.1478 0 17.1478 25.8063 30.1272 25.8063H30.4994V30.0962H30.035C13.7868 30.0962 13.7868 4.28983 0.743606 4.28983H0.364258V0Z" fill="white"/>
<path d="M0.364258 12.8691C2.64888 12.871 4.83944 13.7792 6.45524 15.3943C8.07105 17.0094 8.9801 19.1996 8.98291 21.4843C8.9801 23.7692 8.07116 25.9598 6.45546 27.5755C4.83976 29.1912 2.6492 30.1001 0.364258 30.1029V25.8131C1.51176 25.8112 2.61172 25.3545 3.42313 24.5431C4.23454 23.7317 4.69121 22.6318 4.69309 21.4843C4.69121 20.3371 4.23442 19.2375 3.42291 18.4266C2.61141 17.6158 1.51143 17.1599 0.364258 17.159V12.8691Z" fill="white"/>
</g>
<defs>
<clipPath id="clip0_232_4272">
<rect width="183.273" height="32" fill="white" transform="translate(0.363281)"/>
</clipPath>
</defs>
</svg>
