<svg width="32" height="32" viewBox="0 0 32 32" fill="none" xmlns="http://www.w3.org/2000/svg">
<g clip-path="url(#clip0_0_753)">
<path opacity="0.2" d="M28.9231 16C28.9231 18.5559 28.1651 21.0545 26.7451 23.1797C25.3251 25.3048 23.3068 26.9612 20.9454 27.9393C18.5841 28.9175 15.9857 29.1734 13.4788 28.6747C10.972 28.1761 8.66933 26.9453 6.86201 25.138C5.05469 23.3306 3.82388 21.028 3.32524 18.5211C2.8266 16.0143 3.08252 13.4159 4.06064 11.0545C5.03876 8.69315 6.69514 6.67484 8.82033 5.25484C10.9455 3.83483 13.4441 3.0769 16 3.0769C19.4274 3.0769 22.7144 4.43844 25.138 6.86199C27.5615 9.28553 28.9231 12.5726 28.9231 16Z" fill="#EB7F5E"/>
<path d="M22.1465 12.0073C22.2467 12.1073 22.3261 12.2261 22.3803 12.3568C22.4345 12.4876 22.4624 12.6277 22.4624 12.7692C22.4624 12.9108 22.4345 13.0509 22.3803 13.1816C22.3261 13.3124 22.2467 13.4311 22.1465 13.5312L14.6081 21.0696C14.5081 21.1697 14.3893 21.2492 14.2586 21.3034C14.1278 21.3576 13.9877 21.3855 13.8462 21.3855C13.7046 21.3855 13.5645 21.3576 13.4338 21.3034C13.303 21.2492 13.1843 21.1697 13.0842 21.0696L9.85347 17.8388C9.65139 17.6368 9.53787 17.3627 9.53787 17.0769C9.53787 16.7911 9.65139 16.5171 9.85347 16.315C10.0555 16.1129 10.3296 15.9994 10.6154 15.9994C10.9012 15.9994 11.1752 16.1129 11.3773 16.315L13.8462 18.7852L20.6227 12.0073C20.7227 11.9072 20.8415 11.8277 20.9722 11.7735C21.103 11.7194 21.2431 11.6915 21.3846 11.6915C21.5261 11.6915 21.6663 11.7194 21.797 11.7735C21.9278 11.8277 22.0465 11.9072 22.1465 12.0073ZM30 16C30 18.7689 29.1789 21.4757 27.6406 23.778C26.1022 26.0803 23.9157 27.8747 21.3576 28.9343C18.7994 29.9939 15.9845 30.2712 13.2687 29.731C10.553 29.1908 8.05845 27.8574 6.10051 25.8995C4.14258 23.9416 2.80921 21.447 2.26901 18.7313C1.72882 16.0155 2.00607 13.2006 3.06569 10.6424C4.12532 8.08427 5.91973 5.89776 8.22202 4.35943C10.5243 2.82109 13.2311 2 16 2C19.7118 2.00392 23.2705 3.48017 25.8952 6.10483C28.5198 8.72949 29.9961 12.2882 30 16ZM27.8462 16C27.8462 13.6571 27.1514 11.3667 25.8497 9.41863C24.548 7.47054 22.6979 5.95219 20.5333 5.05558C18.3687 4.15897 15.9869 3.92438 13.6889 4.38147C11.391 4.83855 9.28022 5.96679 7.62351 7.6235C5.9668 9.28022 4.83856 11.391 4.38147 13.6889C3.92439 15.9869 4.15898 18.3687 5.05559 20.5333C5.95219 22.6979 7.47054 24.548 9.41863 25.8497C11.3667 27.1514 13.6571 27.8461 16 27.8461C19.1407 27.8426 22.1518 26.5934 24.3726 24.3726C26.5934 22.1517 27.8426 19.1407 27.8462 16Z" fill="#EB7F5E"/>
</g>
<defs>
<clipPath id="clip0_0_753">
<rect width="28" height="28" fill="white" transform="translate(2 2)"/>
</clipPath>
</defs>
</svg>
